<?xml version="1.0" standalone="no"?>
<!DOCTYPE svg PUBLIC "-//W3C//DTD SVG 20010904//EN"
 "http://www.w3.org/TR/2001/REC-SVG-20010904/DTD/svg10.dtd">
<svg version="1.0" xmlns="http://www.w3.org/2000/svg"
 width="576.000000pt" height="576.000000pt" viewBox="0 0 576.000000 576.000000"
 preserveAspectRatio="xMidYMid meet">
<metadata>
Created by potrace 1.14, written by Peter Selinger 2001-2017
</metadata>
<g transform="translate(0.000000,576.000000) scale(0.100000,-0.100000)"
fill="#000000" stroke="none">
<path d="M2825 5107 c-12 -7 -43 -32 -69 -57 -41 -38 -74 -72 -176 -179 -69
-73 -310 -405 -310 -427 0 -4 -6 -15 -14 -23 -7 -9 -28 -43 -46 -76 -17 -33
-37 -66 -42 -72 -6 -7 -8 -13 -4 -13 3 0 -4 -17 -17 -37 -12 -21 -44 -87 -71
-148 -27 -60 -57 -129 -67 -152 -11 -24 -19 -48 -19 -53 0 -6 -7 -24 -15 -40
-8 -16 -17 -37 -18 -47 -2 -10 -9 -30 -15 -44 -9 -22 -27 -81 -38 -121 -1 -5
-3 -10 -4 -13 -1 -3 -4 -9 -5 -15 -1 -5 -3 -11 -5 -12 -1 -2 -3 -10 -5 -19 -1
-9 -10 -41 -18 -70 -29 -100 -30 -117 -5 -130 29 -15 221 -140 228 -148 3 -3
28 -21 55 -40 47 -33 114 -86 194 -156 153 -132 421 -425 501 -545 34 -52 40
-53 66 -18 13 18 32 44 41 57 20 27 95 121 133 166 67 79 326 329 404 390 22
17 46 37 55 46 35 33 229 167 354 243 24 15 27 22 23 51 -3 19 -12 53 -21 77
-8 24 -15 52 -15 64 0 11 -5 25 -12 32 -7 7 -9 12 -5 12 7 0 -83 266 -113 335
-10 22 -30 69 -45 105 -146 342 -362 675 -600 920 -140 145 -160 160 -212 165
-27 2 -57 -1 -68 -8z"/>
<path d="M23 3494 c-25 -25 -25 -27 -19 -142 3 -64 8 -133 11 -152 2 -19 7
-55 10 -80 3 -25 7 -56 10 -70 2 -14 7 -41 9 -60 5 -32 13 -71 20 -95 2 -5 7
-28 11 -50 12 -55 12 -55 14 -57 2 -2 4 -14 7 -28 5 -29 76 -250 95 -295 7
-16 13 -32 14 -35 1 -3 8 -21 15 -40 24 -65 167 -338 216 -412 48 -72 149
-212 169 -234 5 -6 30 -35 55 -64 54 -64 147 -158 257 -260 122 -112 140 -128
243 -208 52 -40 103 -80 113 -88 9 -8 20 -14 23 -14 3 0 31 -17 62 -39 115
-78 310 -181 452 -238 79 -32 289 -100 327 -106 17 -3 35 -7 40 -10 4 -3 26
-8 48 -11 22 -4 48 -9 57 -12 9 -3 32 -7 50 -9 18 -2 49 -6 68 -9 19 -3 51 -9
70 -12 19 -3 181 -7 360 -9 328 -3 447 4 634 41 11 2 37 7 56 10 19 3 49 10
65 14 17 5 64 18 105 30 90 26 215 69 250 87 14 7 30 13 37 13 13 0 254 122
333 170 75 44 231 151 252 172 10 10 21 18 26 18 4 0 23 15 42 33 20 17 56 48
80 67 56 44 160 141 270 251 119 120 156 162 232 264 4 6 18 24 31 40 40 51
117 172 117 184 0 6 3 11 8 11 4 0 32 48 62 108 30 59 59 110 63 113 5 3 8 8
6 10 -1 2 8 27 20 54 35 77 101 256 121 330 5 17 16 57 25 90 9 33 18 69 21
80 17 84 34 175 38 200 3 17 8 48 11 70 9 54 12 90 20 232 7 122 7 122 -19
148 l-25 25 -143 -5 c-79 -3 -154 -8 -168 -10 -14 -1 -50 -6 -80 -9 -30 -4
-66 -9 -80 -11 -61 -10 -168 -27 -195 -31 -16 -3 -43 -9 -60 -14 -16 -5 -41
-12 -55 -14 -75 -15 -319 -86 -365 -106 -11 -5 -51 -20 -90 -35 -176 -67 -370
-166 -540 -276 -246 -161 -504 -397 -680 -624 -16 -21 -39 -50 -50 -64 -12
-14 -29 -39 -40 -56 -10 -16 -22 -34 -27 -40 -20 -24 -58 -87 -58 -95 0 -6 -3
-10 -7 -10 -5 0 -13 -10 -19 -23 -110 -213 -164 -324 -164 -334 0 -32 -18 -5
-58 86 -24 54 -75 152 -113 217 -84 144 -92 158 -99 164 -3 3 -27 35 -53 72
-26 36 -53 73 -59 80 -7 7 -35 40 -63 73 -80 95 -263 274 -375 365 -30 25 -57
47 -60 50 -8 9 -152 114 -185 135 -160 104 -344 199 -540 277 -116 46 -301
108 -325 108 -9 0 -20 3 -24 7 -3 4 -14 8 -24 10 -10 1 -47 9 -82 18 -36 9
-76 18 -90 21 -14 2 -45 8 -70 14 -52 10 -112 20 -155 26 -16 2 -50 6 -75 10
-67 9 -112 12 -258 18 -133 5 -134 5 -159 -20z"/>
</g>
</svg>
